<?xml version="1.0" encoding="utf-8"?>
<!-- Generator: Adobe Illustrator 16.0.0, SVG Export Plug-In . SVG Version: 6.00 Build 0)  -->
<!DOCTYPE svg PUBLIC "-//W3C//DTD SVG 1.1//EN" "http://www.w3.org/Graphics/SVG/1.1/DTD/svg11.dtd">
<svg version="1.1" id="Layer_1" xmlns="http://www.w3.org/2000/svg" xmlns:xlink="http://www.w3.org/1999/xlink" x="0px" y="0px"
	 width="511.999px" height="459.752px" viewBox="0 0 511.999 459.752" enable-background="new 0 0 511.999 459.752"
	 xml:space="preserve">
<g>
	<defs>
		<rect id="SVGID_1_" width="511.999" height="459.752"/>
	</defs>
	<clipPath id="SVGID_2_">
		<use xlink:href="#SVGID_1_"  overflow="visible"/>
	</clipPath>
	<path clip-path="url(#SVGID_2_)" fill="#FFFFFF" d="M428.59,112.399c-7.315-46.158-47.386-81.555-95.57-81.555
		c-11.418,0-22.814,2.053-33.51,5.996C275.702,13.3,243.608,0,209.823,0C144.605,0,90.657,49.179,83.118,112.4
		C37.225,112.753,0,150.196,0,196.17c0,46.19,37.58,83.771,83.771,83.771h82.029c-9.363,12.56-14.914,28.12-14.914,44.955v134.857
		h210.228V324.896c0-16.835-5.55-32.394-14.913-44.955h82.027c46.192,0,83.771-37.58,83.771-83.771
		C511.999,150.1,474.615,112.596,428.59,112.399 M256,249.523c-27.178,0-49.289-22.112-49.289-49.289
		c0-27.176,22.111-49.288,49.289-49.288c27.179,0,49.289,22.112,49.289,49.288C305.289,227.412,283.178,249.523,256,249.523
		 M330.697,324.896v104.439H181.303V324.896c0-24.788,20.167-44.955,44.955-44.955h59.484
		C310.53,279.94,330.697,300.107,330.697,324.896 M428.229,249.523h-109.66c10.718-13.574,17.138-30.69,17.138-49.289
		c0-43.949-35.757-79.705-79.706-79.705c-43.95,0-79.706,35.757-79.706,79.705c0,18.599,6.42,35.715,17.137,49.289H83.771
		c-29.419,0-53.353-23.935-53.353-53.354c0-29.42,23.934-53.354,53.353-53.354h28.864v-15.209c0-53.59,43.599-97.189,97.19-97.189
		c28.663,0,55.729,12.575,74.261,34.5l7.82,9.251l10.766-5.553c9.464-4.88,19.675-7.355,30.35-7.355
		c36.582,0,66.346,29.763,66.346,66.346v15.209h28.863c29.419,0,53.353,23.934,53.353,53.354
		C481.583,225.589,457.648,249.523,428.229,249.523"/>
	<path clip-path="url(#SVGID_2_)" fill="#FFFFFF" d="M127.844,127.607h30.417c0-28.432,23.131-51.563,51.563-51.563V45.627
		C164.62,45.627,127.844,82.403,127.844,127.607"/>
</g>
</svg>
