<?xml version="1.0" encoding="utf-8"?>
<!-- Generator: Adobe Illustrator 16.0.0, SVG Export Plug-In . SVG Version: 6.00 Build 0)  -->
<!DOCTYPE svg PUBLIC "-//W3C//DTD SVG 1.1//EN" "http://www.w3.org/Graphics/SVG/1.1/DTD/svg11.dtd">
<svg version="1.1" id="Layer_1" xmlns="http://www.w3.org/2000/svg" xmlns:xlink="http://www.w3.org/1999/xlink" x="0px" y="0px"
	 width="512px" height="416.371px" viewBox="0 0 512 416.371" enable-background="new 0 0 512 416.371" xml:space="preserve">
<title>like_icn-01</title>
<path fill="#FFFFFF" d="M501.62,253.46c0.006-8.18-2.47-16.168-7.101-22.91l0,0c11.103-7.686,17.655-20.389,17.48-33.89
	c-0.28-22.35-19.05-40.07-41.4-40.07H364.78c0,0,0,0,0-0.05l6.729-15.1c9.865-22.02,14.977-45.872,15-70c0,0,0.061-29.6,0.061-29.77
	c-0.008-23.041-18.692-41.714-41.734-41.706C327.837-0.031,312.54,10.289,306.17,26.05c-0.279,0.7-10,29.3-10,29.3
	c-8.75,25.43-24.279,47.988-44.91,65.24L201.73,162h-28.58l0,0v-13c0-13.763-11.157-24.92-24.92-24.92H24.92
	C11.157,124.08,0,135.237,0,149v242.451c0,13.762,11.157,24.92,24.92,24.92l0,0h123.27c13.763,0,24.92-11.158,24.92-24.92l0,0V372
	l0,0h15.6l15.5,7.49c36.929,17.787,77.381,27.053,118.37,27.109h116.89c22.431,0,41.21-17.85,41.391-40.27
	c0.068-8.284-2.41-16.391-7.101-23.22c0,0,0,0,0-0.05c18.36-12.684,23.002-37.828,10.38-56.23l0,0
	C495.088,279.248,501.62,266.777,501.62,253.46z M110.2,364.1c-9.56,0.005-17.314-7.74-17.32-17.3
	c-0.005-9.561,7.74-17.314,17.3-17.32s17.314,7.74,17.32,17.3c0,0.003,0,0.007,0,0.011C127.5,356.346,119.756,364.095,110.2,364.1z
	 M471.42,212.871h-17.26c-6.907-0.087-12.625,5.347-12.891,12.25c-0.11,6.869,5.369,12.527,12.239,12.638
	c0.066,0.001,0.134,0.001,0.201,0.001h6.87c8.104-0.1,15.002,5.876,16.06,13.91c0.973,8.633-5.238,16.42-13.871,17.392
	c-0.587,0.066-1.178,0.099-1.769,0.099h-17.22c-6.87,0-12.78,5.37-12.891,12.24c-0.088,6.87,5.409,12.511,12.279,12.6
	c0.054,0,0.107,0,0.161,0h6.87c8.06,0,15.16,5.891,16.05,13.91c0.983,8.621-5.208,16.406-13.829,17.389
	c-0.585,0.067-1.173,0.102-1.761,0.102H433.4c-6.87,0-12.78,5.38-12.891,12.24c-0.138,6.869,5.318,12.549,12.188,12.688
	c0.101,0.002,0.202,0.003,0.303,0.002h7.32c8.668-0.219,15.872,6.631,16.091,15.299c0.22,8.668-6.63,15.873-15.298,16.092
	c-0.265,0.006-0.529,0.006-0.793,0H322.61c-37.249,0-74.015-8.42-107.55-24.631L197,348.36c-1.693-0.818-3.549-1.242-5.43-1.239
	h-18.43l0,0V187l0,0h33.08c2.925-0.001,5.757-1.031,8-2.91l53-44.29c24.1-20.163,42.24-46.519,52.47-76.23l10-29l0,0
	c4.001-8.383,14.04-11.937,22.424-7.936c5.849,2.792,9.574,8.695,9.576,15.176c0,0.17-0.061,29.72-0.061,29.72
	c-0.012,20.636-4.377,41.037-12.81,59.87l-14.49,32.5c-1.221,2.738-1.408,5.825-0.53,8.69c0.07,0.24,2.76,9,11.94,9H471
	c8.07,0,15.16,5.9,16.06,13.91c0.912,8.634-5.349,16.373-13.982,17.283C472.526,212.841,471.974,212.871,471.42,212.871z"/>
</svg>
