<?xml version="1.0" encoding="utf-8"?>
<!-- Generator: Adobe Illustrator 16.0.0, SVG Export Plug-In . SVG Version: 6.00 Build 0)  -->
<!DOCTYPE svg PUBLIC "-//W3C//DTD SVG 1.1//EN" "http://www.w3.org/Graphics/SVG/1.1/DTD/svg11.dtd">
<svg version="1.1" id="Layer_1" xmlns="http://www.w3.org/2000/svg" xmlns:xlink="http://www.w3.org/1999/xlink" x="0px" y="0px"
	 width="480px" height="480px" viewBox="0 0 480 480" enable-background="new 0 0 480 480" xml:space="preserve">
<g>
	<defs>
		<rect id="SVGID_1_" width="480" height="480"/>
	</defs>
	<clipPath id="SVGID_2_">
		<use xlink:href="#SVGID_1_"  overflow="visible"/>
	</clipPath>
	<path clip-path="url(#SVGID_2_)" fill="#FFFFFF" d="M312,160h16v-8c0-13.255-10.745-24-24-24s-24,10.745-24,24v8h16v-8
		c0-4.418,3.582-8,8-8s8,3.582,8,8V160z"/>
	<path clip-path="url(#SVGID_2_)" fill="#FFFFFF" d="M376,152c0-4.418,3.582-8,8-8s8,3.582,8,8v8h16v-8c0-13.255-10.745-24-24-24
		s-24,10.745-24,24v8h16V152z"/>
	<path clip-path="url(#SVGID_2_)" fill="#FFFFFF" d="M344,224c17.673,0,32-14.327,32-32v-8h-16v8c0,8.836-7.163,16-16,16
		s-16-7.164-16-16v-8h-16v8C312,209.673,326.327,224,344,224"/>
	<path clip-path="url(#SVGID_2_)" fill="#FFFFFF" d="M424,256h-40v-8.8c28.951-13.13,49.444-39.837,54.632-71.2H448
		c13.255,0,24-10.745,24-24s-10.745-24-24-24h-8V0H320c-39.746,0.044-71.956,32.254-72,72v56h-8c-13.255,0-24,10.745-24,24
		s10.745,24,24,24h9.368c5.188,31.363,25.681,58.07,54.632,71.2v8.8h-40c-30.913,0.035-55.965,25.087-56,56v8h-48v-8
		c0-13.255-10.745-24-24-24h-32c-13.255,0-24,10.745-24,24v8H8c-4.418,0-8,3.582-8,8v144c0,4.418,3.582,8,8,8h464
		c4.418,0,8-3.582,8-8V312C479.965,281.087,454.913,256.035,424,256 M375.136,315.824l-1.479-1.48L355.312,296l24-24H408
		L375.136,315.824z M342.776,344h2.447l14.32,85.936L344,450.664l-15.544-20.729L342.776,344z M348.687,328h-9.375l-7.999-8
		L344,307.313L356.687,320L348.687,328z M344,284.688L331.313,272h25.375L344,284.688z M448,144c4.418,0,8,3.582,8,8s-3.582,8-8,8
		h-8v-16H448z M264,72c0.035-30.913,25.087-55.965,56-56h104v48h-72v8c0,13.255-10.745,24-24,24h-64V72z M240,160
		c-4.418,0-8-3.582-8-8s3.582-8,8-8h8v16H240z M264,160v-48h64c19.002-0.021,35.375-13.387,39.2-32H424v80
		c0.109,32.976-20.145,62.599-50.912,74.464c-3.066,1.199-5.087,4.155-5.088,7.448V256h-48v-14.088
		c-0.001-3.293-2.021-6.249-5.088-7.448C284.145,222.599,263.891,192.976,264,160 M308.688,272l24,24l-18.344,18.344l-1.479,1.48
		L280,272H308.688z M224,312c0.067-20.587,15.779-37.747,36.28-39.624L305.6,332.8c1.388,1.863,3.516,3.03,5.832,3.2H312
		c2.121,0,4.156-0.844,5.656-2.344l2.344-2.343l7.432,7.431l-15.319,91.936c-0.362,2.158,0.176,4.369,1.487,6.12L334,464h-94V328
		c0-4.418-3.582-8-8-8h-8V312z M96,312c0-4.418,3.582-8,8-8h32c4.418,0,8,3.582,8,8v8H96V312z M224,392H16v-56h208V392z M112,408h16
		v16h-16V408z M16,464v-56h80v24c0,4.418,3.582,8,8,8h32c4.418,0,8-3.582,8-8v-24h80v56H16z M464,464H354l20.4-27.2
		c1.312-1.751,1.85-3.962,1.487-6.12l-15.319-91.936l7.432-7.431l2.344,2.343c1.5,1.5,3.535,2.344,5.656,2.344h0.568
		c2.316-0.17,4.444-1.337,5.832-3.2l45.319-60.424c20.502,1.877,36.214,19.037,36.28,39.624V464z"/>
</g>
</svg>
